<svg xmlns="http://www.w3.org/2000/svg" viewBox="0 0 100 100">
  <!-- Outer circle with gradient-like effect -->
  <circle cx="50" cy="50" r="48" fill="#0c4a6e"/>
  <circle cx="50" cy="50" r="45" fill="#0ea5e9"/>
  
  <!-- Tooth shape -->
  <path d="M35 30 Q40 25 50 25 Q60 25 65 30 Q70 40 65 60 Q60 75 50 80 Q40 75 35 60 Q30 40 35 30 Z" fill="white"/>
  
  <!-- Inner details -->
  <ellipse cx="50" cy="45" rx="8" ry="15" fill="#f0f9ff"/>
  
  <!-- Letter G in blue -->
  <path d="M45 45 C45 40, 55 40, 55 45 L55 50 C55 48, 52 47, 50 47 C48 47, 46 48, 46 50 C46 52, 48 53, 50 53 L53 53 L53 57 L50 57 C45 57, 43 54, 43 50 C43 45, 47 42, 53 42 C58 42, 60 45, 60 49 L55 49 C55 47, 52 46, 50 46 C48 46, 46 47, 46 49 C46 51, 48 52, 50 52 L55 52 L55 55 C55 58, 52 60, 48 60 C44 60, 42 57, 42 53 Z" fill="#0c4a6e"/>
</svg>